<svg id="Layer_1" data-name="Layer 1" xmlns="http://www.w3.org/2000/svg" width="33.99" height="33.99" viewBox="0 0 33.99 33.99"><circle cx="16.99" cy="16.99" r="16.99" style="fill:#0345ff"/><path d="M12.39,16V12.06a.79.79,0,0,1,.94-.88h3.5c.73,0,1,.22,1,1v3.42a1,1,0,0,0,1,1c1.09-.07,2.11,0,3.21,0h.29a.73.73,0,0,1,.8.81V20.8a1,1,0,0,0,.07.44.74.74,0,0,0,.8.65H27.4c.8,0,1.09.29,1.09,1.1v3.28a.93.93,0,0,1-.07.43.85.85,0,0,1-.73.66H19.75a.85.85,0,0,1-.95-.95V21.67a.8.8,0,0,0-.73-.8H13.33c-.65,0-.87-.22-.87-.87C12.39,18.61,12.39,17.3,12.39,16Z" transform="translate(-3.8 -2.48)" style="fill:#fff"/><path d="M23.61,11.18h3.93a.88.88,0,0,1,.95,1v7.8c0,.65-.29.94-.95.94H25c-.58,0-.87-.29-.87-.94V16.5c0-.73-.22-.95-.95-.95H19.75c-.66,0-.95-.29-.95-.94V12.2c0-.65.29-.95.95-.95C21.06,11.18,22.37,11.18,23.61,11.18Z" transform="translate(-3.8 -2.48)" style="fill:#fff"/><path d="M12.39,24.52V22.69c0-.58.22-.8.8-.8H16.9a.75.75,0,0,1,.81.88v3.64a.78.78,0,0,1-.88.88H13.26a.78.78,0,0,1-.87-.88Z" transform="translate(-3.8 -2.48)" style="fill:#fff"/></svg>