<svg id="Layer_1" data-name="Layer 1" xmlns="http://www.w3.org/2000/svg" width="34.99" height="34.99" viewBox="0 0 34.99 34.99"><path d="M11.31,16.55V12.09a.91.91,0,0,1,1.08-1h4c.83,0,1.07.25,1.07,1.08v3.88a1.08,1.08,0,0,0,1.16,1.15c1.24-.08,2.4,0,3.63,0h.34a.83.83,0,0,1,.9.91V22a1,1,0,0,0,.09.5.82.82,0,0,0,.9.74h3.89c.9,0,1.24.33,1.24,1.24V28.2a1.27,1.27,0,0,1-.91,1.24h-9a1,1,0,0,1-1.07-1.08V23a.9.9,0,0,0-.83-.91H12.39c-.75,0-1-.25-1-1C11.31,19.53,11.31,18,11.31,16.55Z" transform="translate(-3.3 -1.98)" style="fill:#4e5055"/><path d="M24,11.1h4.46a1,1,0,0,1,1.08,1.08V21c0,.75-.34,1.08-1.08,1.08H25.6c-.66,0-1-.33-1-1.08V17.13c0-.82-.25-1.07-1.07-1.07H19.65c-.74,0-1.07-.33-1.07-1.08V12.26c0-.74.33-1.07,1.07-1.07C21.14,11.1,22.63,11.1,24,11.1Z" transform="translate(-3.3 -1.98)" style="fill:#4e5055"/><path d="M11.31,26.22V24.15c0-.66.25-.91.91-.91h4.21a.85.85,0,0,1,.91,1v4.13a.88.88,0,0,1-1,1H12.3a.88.88,0,0,1-1-1Z" transform="translate(-3.3 -1.98)" style="fill:#4e5055"/><circle cx="17.49" cy="17.49" r="16.99" style="fill:none;stroke:#4e5055;stroke-miterlimit:10"/></svg>